<?xml version="1.0" standalone="no"?>
<!DOCTYPE svg PUBLIC "-//W3C//DTD SVG 20010904//EN"
 "http://www.w3.org/TR/2001/REC-SVG-20010904/DTD/svg10.dtd">
<svg version="1.0" xmlns="http://www.w3.org/2000/svg"
 width="225.000000pt" height="225.000000pt" viewBox="0 0 225.000000 225.000000"
 preserveAspectRatio="xMidYMid meet">

<g transform="translate(0.000000,225.000000) scale(0.100000,-0.100000)"
fill="#000000" stroke="none">
<path d="M0 1125 l0 -1125 278 0 c250 1 274 2 250 16 -39 20 -45 36 -73 181
-13 70 -47 241 -75 378 -73 363 -90 465 -90 547 0 96 23 198 60 274 l30 62
-34 68 c-98 196 -65 431 79 568 72 70 147 112 235 135 l75 20 -367 0 -368 1 0
-1125z"/>
<path d="M925 2231 c85 -21 172 -63 225 -109 34 -29 40 -39 40 -73 0 -41 -14
-78 -34 -91 -24 -16 -61 -6 -140 37 -101 55 -165 65 -252 40 -64 -18 -119 -48
-147 -80 -78 -89 -82 -224 -10 -306 13 -15 19 -15 76 3 82 26 220 26 302 0 57
-17 60 -20 57 -48 -14 -168 -13 -257 2 -322 32 -130 123 -250 229 -301 61 -29
86 -34 157 -32 35 2 35 2 -25 31 -105 50 -191 159 -230 287 -36 118 -7 412 47
480 18 23 137 -76 197 -164 21 -31 24 -32 94 -31 39 0 92 -7 117 -14 l45 -14
79 64 c44 35 99 75 123 89 42 24 46 25 61 9 14 -13 18 -41 21 -136 5 -193 -33
-334 -123 -452 -41 -53 -140 -123 -197 -138 -40 -11 -43 -18 -63 -110 -3 -14
-17 -74 -31 -135 -25 -105 -47 -200 -115 -496 -17 -73 -39 -144 -51 -160 -21
-31 -75 -51 -111 -42 -33 8 -75 50 -81 80 -3 14 10 101 29 192 18 91 34 174
34 183 0 12 -8 16 -32 15 -18 0 -44 2 -58 7 l-25 7 -38 -198 c-21 -109 -45
-212 -54 -229 -25 -52 -95 -71 -142 -38 -47 34 -52 64 -51 365 1 155 0 282 -2
284 -2 1 -38 6 -81 10 l-78 7 1 -315 c2 -336 1 -339 -49 -370 -24 -15 36 -16
792 -17 l817 0 0 1125 0 1125 -697 -1 c-685 0 -697 -1 -628 -18z"/>
<path d="M1326 1429 c-50 -39 -20 -119 44 -119 58 0 86 85 41 122 -30 23 -52
23 -85 -3z"/>
<path d="M1700 1432 c-49 -16 -68 -83 -32 -115 25 -22 75 -21 95 1 43 47 -5
133 -63 114z"/>
</g>
</svg>
